<mxfile host="app.diagrams.net" agent="Mozilla/5.0 (Windows NT 10.0; Win64; x64) AppleWebKit/537.36 (KHTML, like Gecko) Chrome/139.0.0.0 Safari/537.36 Edg/139.0.0.0" version="28.1.0">
  <diagram id="R2lEEEUBdFMjLlhIrx00" name="Page-1">
    <mxGraphModel dx="1867" dy="553" grid="1" gridSize="10" guides="1" tooltips="1" connect="1" arrows="1" fold="1" page="1" pageScale="1" pageWidth="850" pageHeight="1100" math="0" shadow="0" extFonts="Permanent Marker^https://fonts.googleapis.com/css?family=Permanent+Marker">
      <root>
        <mxCell id="0" />
        <mxCell id="1" parent="0" />
        <mxCell id="9HaLk-vUKkPJD6GOTPyn-2" value="Name" style="shape=ellipse;whiteSpace=wrap;html=1;" parent="1" vertex="1">
          <mxGeometry x="-40" y="1010" width="80" height="30" as="geometry" />
        </mxCell>
        <mxCell id="9HaLk-vUKkPJD6GOTPyn-3" value="BankCode" style="shape=ellipse;whiteSpace=wrap;html=1;fontStyle=4;" parent="1" vertex="1">
          <mxGeometry x="-40" y="1100" width="80" height="30" as="geometry" />
        </mxCell>
        <mxCell id="9HaLk-vUKkPJD6GOTPyn-4" value="Address" style="shape=ellipse;whiteSpace=wrap;html=1;" parent="1" vertex="1">
          <mxGeometry x="-40" y="1180" width="80" height="30" as="geometry" />
        </mxCell>
        <mxCell id="9HaLk-vUKkPJD6GOTPyn-6" value="Branch_id" style="shape=ellipse;whiteSpace=wrap;html=1;fontStyle=4;" parent="1" vertex="1">
          <mxGeometry x="400" y="1050" width="80" height="30" as="geometry" />
        </mxCell>
        <mxCell id="9HaLk-vUKkPJD6GOTPyn-7" value="Name" style="shape=ellipse;whiteSpace=wrap;html=1;" parent="1" vertex="1">
          <mxGeometry x="505" y="1030" width="80" height="30" as="geometry" />
        </mxCell>
        <mxCell id="9HaLk-vUKkPJD6GOTPyn-8" value="Address" style="shape=ellipse;whiteSpace=wrap;html=1;" parent="1" vertex="1">
          <mxGeometry x="600" y="1080" width="80" height="30" as="geometry" />
        </mxCell>
        <mxCell id="9HaLk-vUKkPJD6GOTPyn-9" value="Has" style="rhombus;whiteSpace=wrap;html=1;perimeter=rhombusPerimeter;" parent="1" vertex="1">
          <mxGeometry x="300" y="1120" width="80" height="60" as="geometry" />
        </mxCell>
        <mxCell id="9HaLk-vUKkPJD6GOTPyn-10" value="N" style="resizable=0;html=1;align=right;verticalAlign=bottom;" parent="9HaLk-vUKkPJD6GOTPyn-9" connectable="0" vertex="1">
          <mxGeometry x="1" y="1" relative="1" as="geometry">
            <mxPoint x="-1" y="-2" as="offset" />
          </mxGeometry>
        </mxCell>
        <mxCell id="9HaLk-vUKkPJD6GOTPyn-11" value="1" style="resizable=0;html=1;align=left;verticalAlign=bottom;" parent="9HaLk-vUKkPJD6GOTPyn-9" connectable="0" vertex="1">
          <mxGeometry x="-1" y="1" relative="1" as="geometry">
            <mxPoint x="1" y="-2" as="offset" />
          </mxGeometry>
        </mxCell>
        <mxCell id="9HaLk-vUKkPJD6GOTPyn-13" value="Loan_id" style="shape=ellipse;whiteSpace=wrap;html=1;fontStyle=4;" parent="1" vertex="1">
          <mxGeometry x="230" y="1235" width="80" height="30" as="geometry" />
        </mxCell>
        <mxCell id="9HaLk-vUKkPJD6GOTPyn-14" value="Loan_type" style="shape=ellipse;whiteSpace=wrap;html=1;" parent="1" vertex="1">
          <mxGeometry x="230" y="1295" width="80" height="30" as="geometry" />
        </mxCell>
        <mxCell id="9HaLk-vUKkPJD6GOTPyn-15" value="Amount" style="shape=ellipse;whiteSpace=wrap;html=1;" parent="1" vertex="1">
          <mxGeometry x="230" y="1355" width="80" height="30" as="geometry" />
        </mxCell>
        <mxCell id="9HaLk-vUKkPJD6GOTPyn-16" value="Offer" style="rhombus;whiteSpace=wrap;html=1;perimeter=rhombusPerimeter;" parent="1" vertex="1">
          <mxGeometry x="385" y="1220" width="80" height="60" as="geometry" />
        </mxCell>
        <mxCell id="9HaLk-vUKkPJD6GOTPyn-17" value="N" style="resizable=0;html=1;align=right;verticalAlign=bottom;" parent="9HaLk-vUKkPJD6GOTPyn-16" connectable="0" vertex="1">
          <mxGeometry x="1" y="1" relative="1" as="geometry">
            <mxPoint x="-1" y="-2" as="offset" />
          </mxGeometry>
        </mxCell>
        <mxCell id="9HaLk-vUKkPJD6GOTPyn-18" value="1" style="resizable=0;html=1;align=left;verticalAlign=bottom;" parent="9HaLk-vUKkPJD6GOTPyn-16" connectable="0" vertex="1">
          <mxGeometry x="-1" y="1" relative="1" as="geometry">
            <mxPoint x="100" y="-71" as="offset" />
          </mxGeometry>
        </mxCell>
        <mxCell id="9HaLk-vUKkPJD6GOTPyn-20" value="Account_No" style="shape=ellipse;whiteSpace=wrap;html=1;fontStyle=4;" parent="1" vertex="1">
          <mxGeometry x="780" y="1235" width="80" height="30" as="geometry" />
        </mxCell>
        <mxCell id="9HaLk-vUKkPJD6GOTPyn-21" value="Acc_Type" style="shape=ellipse;whiteSpace=wrap;html=1;" parent="1" vertex="1">
          <mxGeometry x="780" y="1290" width="80" height="30" as="geometry" />
        </mxCell>
        <mxCell id="9HaLk-vUKkPJD6GOTPyn-22" value="Balance" style="shape=ellipse;whiteSpace=wrap;html=1;" parent="1" vertex="1">
          <mxGeometry x="810" y="1330" width="80" height="30" as="geometry" />
        </mxCell>
        <mxCell id="9HaLk-vUKkPJD6GOTPyn-23" value="Maintain" style="rhombus;whiteSpace=wrap;html=1;perimeter=rhombusPerimeter;" parent="1" vertex="1">
          <mxGeometry x="610" y="1210" width="80" height="60" as="geometry" />
        </mxCell>
        <mxCell id="9HaLk-vUKkPJD6GOTPyn-24" value="N" style="resizable=0;html=1;align=right;verticalAlign=bottom;" parent="9HaLk-vUKkPJD6GOTPyn-23" connectable="0" vertex="1">
          <mxGeometry x="1" y="1" relative="1" as="geometry">
            <mxPoint x="-1" y="-2" as="offset" />
          </mxGeometry>
        </mxCell>
        <mxCell id="9HaLk-vUKkPJD6GOTPyn-25" value="1" style="resizable=0;html=1;align=left;verticalAlign=bottom;" parent="9HaLk-vUKkPJD6GOTPyn-23" connectable="0" vertex="1">
          <mxGeometry x="-1" y="1" relative="1" as="geometry">
            <mxPoint x="50" y="-84" as="offset" />
          </mxGeometry>
        </mxCell>
        <mxCell id="9HaLk-vUKkPJD6GOTPyn-27" value="Custid" style="shape=ellipse;whiteSpace=wrap;html=1;fontStyle=4;" parent="1" vertex="1">
          <mxGeometry x="400" y="1540" width="80" height="30" as="geometry" />
        </mxCell>
        <mxCell id="9HaLk-vUKkPJD6GOTPyn-28" value="Name" style="shape=ellipse;whiteSpace=wrap;html=1;" parent="1" vertex="1">
          <mxGeometry x="480" y="1590" width="80" height="30" as="geometry" />
        </mxCell>
        <mxCell id="9HaLk-vUKkPJD6GOTPyn-29" value="Phone" style="shape=ellipse;whiteSpace=wrap;html=1;" parent="1" vertex="1">
          <mxGeometry x="585" y="1590" width="80" height="30" as="geometry" />
        </mxCell>
        <mxCell id="9HaLk-vUKkPJD6GOTPyn-30" value="Address" style="shape=ellipse;whiteSpace=wrap;html=1;" parent="1" vertex="1">
          <mxGeometry x="670" y="1560" width="80" height="30" as="geometry" />
        </mxCell>
        <mxCell id="9HaLk-vUKkPJD6GOTPyn-31" value="Availed by" style="rhombus;whiteSpace=wrap;html=1;perimeter=rhombusPerimeter;" parent="1" vertex="1">
          <mxGeometry x="390" y="1420" width="80" height="60" as="geometry" />
        </mxCell>
        <mxCell id="9HaLk-vUKkPJD6GOTPyn-32" value="M" style="resizable=0;html=1;align=right;verticalAlign=bottom;" parent="9HaLk-vUKkPJD6GOTPyn-31" connectable="0" vertex="1">
          <mxGeometry x="1" y="1" relative="1" as="geometry">
            <mxPoint x="-1" y="-2" as="offset" />
          </mxGeometry>
        </mxCell>
        <mxCell id="9HaLk-vUKkPJD6GOTPyn-33" value="N" style="resizable=0;html=1;align=left;verticalAlign=bottom;" parent="9HaLk-vUKkPJD6GOTPyn-31" connectable="0" vertex="1">
          <mxGeometry x="-1" y="1" relative="1" as="geometry">
            <mxPoint x="111" y="-91" as="offset" />
          </mxGeometry>
        </mxCell>
        <mxCell id="9HaLk-vUKkPJD6GOTPyn-34" value="Hold by" style="rhombus;whiteSpace=wrap;html=1;perimeter=rhombusPerimeter;" parent="1" vertex="1">
          <mxGeometry x="600" y="1385" width="80" height="60" as="geometry" />
        </mxCell>
        <mxCell id="9HaLk-vUKkPJD6GOTPyn-35" value="M" style="resizable=0;html=1;align=right;verticalAlign=bottom;" parent="9HaLk-vUKkPJD6GOTPyn-34" connectable="0" vertex="1">
          <mxGeometry x="1" y="1" relative="1" as="geometry">
            <mxPoint x="-1" y="-2" as="offset" />
          </mxGeometry>
        </mxCell>
        <mxCell id="9HaLk-vUKkPJD6GOTPyn-36" value="N" style="resizable=0;html=1;align=left;verticalAlign=bottom;" parent="9HaLk-vUKkPJD6GOTPyn-34" connectable="0" vertex="1">
          <mxGeometry x="-1" y="1" relative="1" as="geometry">
            <mxPoint x="90" y="-82" as="offset" />
          </mxGeometry>
        </mxCell>
        <mxCell id="9HaLk-vUKkPJD6GOTPyn-38" style="edgeStyle=elbowEdgeStyle;elbow=horizontal;startArrow=open;endArrow=open;html=1;curved=1;exitX=1;exitY=0.5;exitDx=0;exitDy=0;" parent="1" source="9HaLk-vUKkPJD6GOTPyn-70" target="9HaLk-vUKkPJD6GOTPyn-9" edge="1">
          <mxGeometry relative="1" as="geometry">
            <mxPoint x="250" y="1140" as="sourcePoint" />
          </mxGeometry>
        </mxCell>
        <mxCell id="9HaLk-vUKkPJD6GOTPyn-39" style="edgeStyle=elbowEdgeStyle;elbow=horizontal;startArrow=open;endArrow=open;html=1;curved=1;entryX=0;entryY=0.5;entryDx=0;entryDy=0;" parent="1" source="9HaLk-vUKkPJD6GOTPyn-9" target="9HaLk-vUKkPJD6GOTPyn-71" edge="1">
          <mxGeometry relative="1" as="geometry">
            <mxPoint x="400" y="1140" as="targetPoint" />
          </mxGeometry>
        </mxCell>
        <mxCell id="9HaLk-vUKkPJD6GOTPyn-40" style="edgeStyle=elbowEdgeStyle;elbow=horizontal;startArrow=open;endArrow=open;html=1;curved=1;exitX=0.413;exitY=1.008;exitDx=0;exitDy=0;exitPerimeter=0;entryX=0.5;entryY=0;entryDx=0;entryDy=0;" parent="1" source="9HaLk-vUKkPJD6GOTPyn-71" target="9HaLk-vUKkPJD6GOTPyn-16" edge="1">
          <mxGeometry relative="1" as="geometry">
            <mxPoint x="450" y="1190" as="sourcePoint" />
          </mxGeometry>
        </mxCell>
        <mxCell id="9HaLk-vUKkPJD6GOTPyn-41" style="edgeStyle=elbowEdgeStyle;elbow=horizontal;startArrow=open;endArrow=open;html=1;curved=1;entryX=0.5;entryY=0;entryDx=0;entryDy=0;" parent="1" source="9HaLk-vUKkPJD6GOTPyn-16" target="9HaLk-vUKkPJD6GOTPyn-72" edge="1">
          <mxGeometry relative="1" as="geometry">
            <mxPoint x="450" y="1290" as="targetPoint" />
          </mxGeometry>
        </mxCell>
        <mxCell id="9HaLk-vUKkPJD6GOTPyn-42" style="edgeStyle=elbowEdgeStyle;elbow=horizontal;startArrow=open;endArrow=open;html=1;curved=1;exitX=1;exitY=0.5;exitDx=0;exitDy=0;" parent="1" source="9HaLk-vUKkPJD6GOTPyn-71" target="9HaLk-vUKkPJD6GOTPyn-23" edge="1">
          <mxGeometry relative="1" as="geometry">
            <mxPoint x="500" y="1140" as="sourcePoint" />
          </mxGeometry>
        </mxCell>
        <mxCell id="9HaLk-vUKkPJD6GOTPyn-43" style="edgeStyle=elbowEdgeStyle;elbow=horizontal;startArrow=open;endArrow=open;html=1;curved=1;entryX=0.5;entryY=0;entryDx=0;entryDy=0;" parent="1" source="9HaLk-vUKkPJD6GOTPyn-23" target="9HaLk-vUKkPJD6GOTPyn-73" edge="1">
          <mxGeometry relative="1" as="geometry">
            <mxPoint x="650" y="1290" as="targetPoint" />
          </mxGeometry>
        </mxCell>
        <mxCell id="9HaLk-vUKkPJD6GOTPyn-44" style="edgeStyle=elbowEdgeStyle;elbow=horizontal;startArrow=open;endArrow=open;html=1;curved=1;exitX=0.5;exitY=1;exitDx=0;exitDy=0;" parent="1" source="9HaLk-vUKkPJD6GOTPyn-72" target="9HaLk-vUKkPJD6GOTPyn-31" edge="1">
          <mxGeometry relative="1" as="geometry">
            <mxPoint x="450" y="1390" as="sourcePoint" />
          </mxGeometry>
        </mxCell>
        <mxCell id="9HaLk-vUKkPJD6GOTPyn-45" style="edgeStyle=elbowEdgeStyle;elbow=horizontal;startArrow=open;endArrow=open;html=1;curved=1;entryX=0;entryY=0.5;entryDx=0;entryDy=0;" parent="1" source="9HaLk-vUKkPJD6GOTPyn-31" target="9HaLk-vUKkPJD6GOTPyn-74" edge="1">
          <mxGeometry relative="1" as="geometry">
            <mxPoint x="500" y="1540" as="targetPoint" />
          </mxGeometry>
        </mxCell>
        <mxCell id="9HaLk-vUKkPJD6GOTPyn-46" style="edgeStyle=elbowEdgeStyle;elbow=horizontal;startArrow=open;endArrow=open;html=1;curved=1;exitX=0.5;exitY=1;exitDx=0;exitDy=0;" parent="1" source="9HaLk-vUKkPJD6GOTPyn-73" target="9HaLk-vUKkPJD6GOTPyn-34" edge="1">
          <mxGeometry relative="1" as="geometry">
            <mxPoint x="650" y="1390" as="sourcePoint" />
          </mxGeometry>
        </mxCell>
        <mxCell id="9HaLk-vUKkPJD6GOTPyn-47" style="edgeStyle=elbowEdgeStyle;elbow=horizontal;startArrow=open;endArrow=open;html=1;curved=1;entryX=1;entryY=0.5;entryDx=0;entryDy=0;" parent="1" source="9HaLk-vUKkPJD6GOTPyn-34" target="9HaLk-vUKkPJD6GOTPyn-74" edge="1">
          <mxGeometry relative="1" as="geometry">
            <mxPoint x="600" y="1540" as="targetPoint" />
          </mxGeometry>
        </mxCell>
        <mxCell id="9HaLk-vUKkPJD6GOTPyn-70" value="Bank" style="rounded=1;arcSize=10;whiteSpace=wrap;html=1;align=center;" parent="1" vertex="1">
          <mxGeometry x="110" y="1130" width="100" height="40" as="geometry" />
        </mxCell>
        <mxCell id="9HaLk-vUKkPJD6GOTPyn-71" value="Branch" style="rounded=1;arcSize=10;whiteSpace=wrap;html=1;align=center;" parent="1" vertex="1">
          <mxGeometry x="425" y="1130" width="100" height="40" as="geometry" />
        </mxCell>
        <mxCell id="9HaLk-vUKkPJD6GOTPyn-72" value="Loan" style="rounded=1;arcSize=10;whiteSpace=wrap;html=1;align=center;" parent="1" vertex="1">
          <mxGeometry x="400" y="1320" width="100" height="40" as="geometry" />
        </mxCell>
        <mxCell id="9HaLk-vUKkPJD6GOTPyn-73" value="Account" style="rounded=1;arcSize=10;whiteSpace=wrap;html=1;align=center;" parent="1" vertex="1">
          <mxGeometry x="600" y="1310" width="100" height="40" as="geometry" />
        </mxCell>
        <mxCell id="9HaLk-vUKkPJD6GOTPyn-74" value="Customer" style="rounded=1;arcSize=10;whiteSpace=wrap;html=1;align=center;" parent="1" vertex="1">
          <mxGeometry x="510" y="1480" width="100" height="40" as="geometry" />
        </mxCell>
        <mxCell id="9HaLk-vUKkPJD6GOTPyn-75" value="" style="endArrow=none;html=1;rounded=0;exitX=1;exitY=0.5;exitDx=0;exitDy=0;entryX=0;entryY=0.5;entryDx=0;entryDy=0;" parent="1" source="9HaLk-vUKkPJD6GOTPyn-3" target="9HaLk-vUKkPJD6GOTPyn-70" edge="1">
          <mxGeometry width="50" height="50" relative="1" as="geometry">
            <mxPoint x="250" y="1230" as="sourcePoint" />
            <mxPoint x="300" y="1180" as="targetPoint" />
          </mxGeometry>
        </mxCell>
        <mxCell id="9HaLk-vUKkPJD6GOTPyn-76" value="" style="endArrow=none;html=1;rounded=0;exitX=1;exitY=0.5;exitDx=0;exitDy=0;entryX=0;entryY=0.5;entryDx=0;entryDy=0;" parent="1" source="9HaLk-vUKkPJD6GOTPyn-2" target="9HaLk-vUKkPJD6GOTPyn-70" edge="1">
          <mxGeometry width="50" height="50" relative="1" as="geometry">
            <mxPoint x="80" y="1130" as="sourcePoint" />
            <mxPoint x="150" y="1165" as="targetPoint" />
          </mxGeometry>
        </mxCell>
        <mxCell id="9HaLk-vUKkPJD6GOTPyn-77" value="" style="endArrow=none;html=1;rounded=0;exitX=1;exitY=0.5;exitDx=0;exitDy=0;entryX=0;entryY=0.5;entryDx=0;entryDy=0;" parent="1" source="9HaLk-vUKkPJD6GOTPyn-4" target="9HaLk-vUKkPJD6GOTPyn-70" edge="1">
          <mxGeometry width="50" height="50" relative="1" as="geometry">
            <mxPoint x="80" y="1200" as="sourcePoint" />
            <mxPoint x="150" y="1235" as="targetPoint" />
          </mxGeometry>
        </mxCell>
        <mxCell id="9HaLk-vUKkPJD6GOTPyn-78" value="" style="endArrow=none;html=1;rounded=0;exitX=0.5;exitY=1;exitDx=0;exitDy=0;entryX=0.5;entryY=0;entryDx=0;entryDy=0;" parent="1" source="9HaLk-vUKkPJD6GOTPyn-6" target="9HaLk-vUKkPJD6GOTPyn-71" edge="1">
          <mxGeometry width="50" height="50" relative="1" as="geometry">
            <mxPoint x="290" y="1250" as="sourcePoint" />
            <mxPoint x="360" y="1285" as="targetPoint" />
          </mxGeometry>
        </mxCell>
        <mxCell id="9HaLk-vUKkPJD6GOTPyn-79" value="" style="endArrow=none;html=1;rounded=0;exitX=0.5;exitY=1;exitDx=0;exitDy=0;entryX=0.5;entryY=0;entryDx=0;entryDy=0;" parent="1" source="9HaLk-vUKkPJD6GOTPyn-7" target="9HaLk-vUKkPJD6GOTPyn-71" edge="1">
          <mxGeometry width="50" height="50" relative="1" as="geometry">
            <mxPoint x="450" y="1100" as="sourcePoint" />
            <mxPoint x="485" y="1150" as="targetPoint" />
          </mxGeometry>
        </mxCell>
        <mxCell id="9HaLk-vUKkPJD6GOTPyn-80" value="" style="endArrow=none;html=1;rounded=0;exitX=0;exitY=0.5;exitDx=0;exitDy=0;entryX=0.5;entryY=0;entryDx=0;entryDy=0;" parent="1" source="9HaLk-vUKkPJD6GOTPyn-8" target="9HaLk-vUKkPJD6GOTPyn-71" edge="1">
          <mxGeometry width="50" height="50" relative="1" as="geometry">
            <mxPoint x="520" y="1110" as="sourcePoint" />
            <mxPoint x="555" y="1160" as="targetPoint" />
          </mxGeometry>
        </mxCell>
        <mxCell id="9HaLk-vUKkPJD6GOTPyn-81" value="" style="endArrow=none;html=1;rounded=0;exitX=1;exitY=0.5;exitDx=0;exitDy=0;entryX=0;entryY=0.5;entryDx=0;entryDy=0;" parent="1" source="9HaLk-vUKkPJD6GOTPyn-73" target="9HaLk-vUKkPJD6GOTPyn-20" edge="1">
          <mxGeometry width="50" height="50" relative="1" as="geometry">
            <mxPoint x="670" y="1250" as="sourcePoint" />
            <mxPoint x="705" y="1300" as="targetPoint" />
          </mxGeometry>
        </mxCell>
        <mxCell id="9HaLk-vUKkPJD6GOTPyn-83" value="" style="endArrow=none;html=1;rounded=0;exitX=1;exitY=0.5;exitDx=0;exitDy=0;entryX=0;entryY=0.5;entryDx=0;entryDy=0;" parent="1" source="9HaLk-vUKkPJD6GOTPyn-73" target="9HaLk-vUKkPJD6GOTPyn-21" edge="1">
          <mxGeometry width="50" height="50" relative="1" as="geometry">
            <mxPoint x="690" y="1350" as="sourcePoint" />
            <mxPoint x="725" y="1400" as="targetPoint" />
          </mxGeometry>
        </mxCell>
        <mxCell id="9HaLk-vUKkPJD6GOTPyn-84" value="" style="endArrow=none;html=1;rounded=0;exitX=1;exitY=0.5;exitDx=0;exitDy=0;entryX=0;entryY=0.5;entryDx=0;entryDy=0;" parent="1" source="9HaLk-vUKkPJD6GOTPyn-73" target="9HaLk-vUKkPJD6GOTPyn-22" edge="1">
          <mxGeometry width="50" height="50" relative="1" as="geometry">
            <mxPoint x="770" y="1310" as="sourcePoint" />
            <mxPoint x="805" y="1360" as="targetPoint" />
          </mxGeometry>
        </mxCell>
        <mxCell id="9HaLk-vUKkPJD6GOTPyn-85" value="" style="endArrow=none;html=1;rounded=0;exitX=1;exitY=0.5;exitDx=0;exitDy=0;entryX=0;entryY=0.5;entryDx=0;entryDy=0;" parent="1" source="9HaLk-vUKkPJD6GOTPyn-13" target="9HaLk-vUKkPJD6GOTPyn-72" edge="1">
          <mxGeometry width="50" height="50" relative="1" as="geometry">
            <mxPoint x="280" y="1490" as="sourcePoint" />
            <mxPoint x="315" y="1540" as="targetPoint" />
          </mxGeometry>
        </mxCell>
        <mxCell id="9HaLk-vUKkPJD6GOTPyn-86" value="" style="endArrow=none;html=1;rounded=0;exitX=1;exitY=0.5;exitDx=0;exitDy=0;entryX=0;entryY=0.5;entryDx=0;entryDy=0;" parent="1" source="9HaLk-vUKkPJD6GOTPyn-14" target="9HaLk-vUKkPJD6GOTPyn-72" edge="1">
          <mxGeometry width="50" height="50" relative="1" as="geometry">
            <mxPoint x="110" y="1350" as="sourcePoint" />
            <mxPoint x="145" y="1400" as="targetPoint" />
          </mxGeometry>
        </mxCell>
        <mxCell id="9HaLk-vUKkPJD6GOTPyn-87" value="" style="endArrow=none;html=1;rounded=0;exitX=1;exitY=0.5;exitDx=0;exitDy=0;entryX=0;entryY=0.5;entryDx=0;entryDy=0;" parent="1" source="9HaLk-vUKkPJD6GOTPyn-15" target="9HaLk-vUKkPJD6GOTPyn-72" edge="1">
          <mxGeometry width="50" height="50" relative="1" as="geometry">
            <mxPoint x="100" y="1320" as="sourcePoint" />
            <mxPoint x="135" y="1370" as="targetPoint" />
          </mxGeometry>
        </mxCell>
        <mxCell id="9HaLk-vUKkPJD6GOTPyn-88" value="" style="endArrow=none;html=1;rounded=0;exitX=0.5;exitY=1;exitDx=0;exitDy=0;entryX=1;entryY=0.5;entryDx=0;entryDy=0;" parent="1" source="9HaLk-vUKkPJD6GOTPyn-74" target="9HaLk-vUKkPJD6GOTPyn-27" edge="1">
          <mxGeometry width="50" height="50" relative="1" as="geometry">
            <mxPoint x="540" y="1550" as="sourcePoint" />
            <mxPoint x="575" y="1600" as="targetPoint" />
          </mxGeometry>
        </mxCell>
        <mxCell id="9HaLk-vUKkPJD6GOTPyn-89" value="" style="endArrow=none;html=1;rounded=0;entryX=0.5;entryY=0;entryDx=0;entryDy=0;exitX=0.5;exitY=1;exitDx=0;exitDy=0;" parent="1" source="9HaLk-vUKkPJD6GOTPyn-74" target="9HaLk-vUKkPJD6GOTPyn-28" edge="1">
          <mxGeometry width="50" height="50" relative="1" as="geometry">
            <mxPoint x="560" y="1510" as="sourcePoint" />
            <mxPoint x="515" y="1600" as="targetPoint" />
          </mxGeometry>
        </mxCell>
        <mxCell id="9HaLk-vUKkPJD6GOTPyn-90" value="" style="endArrow=none;html=1;rounded=0;exitX=0.5;exitY=1;exitDx=0;exitDy=0;entryX=0.5;entryY=0;entryDx=0;entryDy=0;" parent="1" source="9HaLk-vUKkPJD6GOTPyn-74" target="9HaLk-vUKkPJD6GOTPyn-29" edge="1">
          <mxGeometry width="50" height="50" relative="1" as="geometry">
            <mxPoint x="820" y="1500" as="sourcePoint" />
            <mxPoint x="855" y="1550" as="targetPoint" />
          </mxGeometry>
        </mxCell>
        <mxCell id="9HaLk-vUKkPJD6GOTPyn-91" value="" style="endArrow=none;html=1;rounded=0;exitX=0.5;exitY=1;exitDx=0;exitDy=0;entryX=0.5;entryY=0;entryDx=0;entryDy=0;" parent="1" source="9HaLk-vUKkPJD6GOTPyn-74" target="9HaLk-vUKkPJD6GOTPyn-30" edge="1">
          <mxGeometry width="50" height="50" relative="1" as="geometry">
            <mxPoint x="840" y="1500" as="sourcePoint" />
            <mxPoint x="875" y="1550" as="targetPoint" />
          </mxGeometry>
        </mxCell>
        <mxCell id="custom-bank-derived" value="Num_Branches" style="shape=ellipse;whiteSpace=wrap;html=1;" parent="1" vertex="1">
          <mxGeometry x="110" y="1200" width="100" height="30" as="geometry" />
        </mxCell>
        <mxCell id="edge-bank-derived" value="" style="endArrow=none;html=1;rounded=0;" parent="1" source="custom-bank-derived" target="9HaLk-vUKkPJD6GOTPyn-70" edge="1">
          <mxGeometry relative="1" as="geometry" />
        </mxCell>
        <mxCell id="edge-branch-fk-bank" value="" style="endArrow=none;html=1;rounded=0;exitX=0.5;exitY=1;exitDx=0;exitDy=0;" parent="1" source="qlf4NfEvW8aG7AL079hW-2" target="9HaLk-vUKkPJD6GOTPyn-71" edge="1">
          <mxGeometry relative="1" as="geometry" />
        </mxCell>
        <mxCell id="custom-loan-fk-branch" value="Branch_id" style="shape=ellipse;whiteSpace=wrap;html=1;" parent="1" vertex="1">
          <mxGeometry x="320" y="1400" width="90" height="30" as="geometry" />
        </mxCell>
        <mxCell id="edge-loan-fk-branch" value="" style="endArrow=none;html=1;rounded=0;" parent="1" source="custom-loan-fk-branch" target="9HaLk-vUKkPJD6GOTPyn-72" edge="1">
          <mxGeometry relative="1" as="geometry" />
        </mxCell>
        <mxCell id="edge-loan-fk-cust" value="" style="endArrow=none;html=1;rounded=0;exitX=0.5;exitY=0;exitDx=0;exitDy=0;" parent="1" source="qlf4NfEvW8aG7AL079hW-6" target="9HaLk-vUKkPJD6GOTPyn-72" edge="1">
          <mxGeometry relative="1" as="geometry" />
        </mxCell>
        <mxCell id="custom-loan-derived" value="Monthly_payment" style="shape=ellipse;whiteSpace=wrap;html=1;" parent="1" vertex="1">
          <mxGeometry x="160" y="1415" width="120" height="30" as="geometry" />
        </mxCell>
        <mxCell id="edge-loan-derived" value="" style="endArrow=none;html=1;rounded=0;" parent="1" source="custom-loan-derived" target="9HaLk-vUKkPJD6GOTPyn-72" edge="1">
          <mxGeometry relative="1" as="geometry" />
        </mxCell>
        <mxCell id="edge-account-fk-branch" value="" style="endArrow=none;html=1;rounded=0;exitX=0;exitY=0.5;exitDx=0;exitDy=0;" parent="1" source="qlf4NfEvW8aG7AL079hW-3" target="9HaLk-vUKkPJD6GOTPyn-73" edge="1">
          <mxGeometry relative="1" as="geometry" />
        </mxCell>
        <mxCell id="edge-account-fk-cust" value="" style="endArrow=none;html=1;rounded=0;exitX=0;exitY=0;exitDx=0;exitDy=0;" parent="1" source="qlf4NfEvW8aG7AL079hW-7" target="9HaLk-vUKkPJD6GOTPyn-73" edge="1">
          <mxGeometry relative="1" as="geometry" />
        </mxCell>
        <mxCell id="custom-customer-derived" value="Credit_Score" style="shape=ellipse;whiteSpace=wrap;html=1;" parent="1" vertex="1">
          <mxGeometry x="750" y="1530" width="110" height="30" as="geometry" />
        </mxCell>
        <mxCell id="edge-customer-derived" value="" style="endArrow=none;html=1;rounded=0;" parent="1" source="custom-customer-derived" target="9HaLk-vUKkPJD6GOTPyn-74" edge="1">
          <mxGeometry relative="1" as="geometry" />
        </mxCell>
        <mxCell id="custom-compkey-availed" value="Custid + Loan_id" style="shape=ellipse;whiteSpace=wrap;html=1;" parent="1" vertex="1">
          <mxGeometry x="320" y="1500" width="140" height="30" as="geometry" />
        </mxCell>
        <mxCell id="edge-compkey-availed" value="" style="endArrow=none;html=1;rounded=0;" parent="1" source="custom-compkey-availed" target="9HaLk-vUKkPJD6GOTPyn-31" edge="1">
          <mxGeometry relative="1" as="geometry" />
        </mxCell>
        <mxCell id="custom-compkey-hold" value="Custid + Account_No" style="shape=ellipse;whiteSpace=wrap;html=1;" parent="1" vertex="1">
          <mxGeometry x="730" y="1460" width="160" height="30" as="geometry" />
        </mxCell>
        <mxCell id="edge-compkey-hold" value="" style="endArrow=none;html=1;rounded=0;" parent="1" source="custom-compkey-hold" target="9HaLk-vUKkPJD6GOTPyn-34" edge="1">
          <mxGeometry relative="1" as="geometry" />
        </mxCell>
        <mxCell id="custom-branch-derived" value="Num_Accounts" style="shape=ellipse;whiteSpace=wrap;html=1;" parent="1" vertex="1">
          <mxGeometry x="620" y="1130" width="110" height="30" as="geometry" />
        </mxCell>
        <mxCell id="edge-branch-derived" value="" style="endArrow=none;html=1;rounded=0;" parent="1" source="custom-branch-derived" target="9HaLk-vUKkPJD6GOTPyn-71" edge="1">
          <mxGeometry relative="1" as="geometry" />
        </mxCell>
        <mxCell id="custom-account-derived" value="Available_Balance" style="shape=ellipse;whiteSpace=wrap;html=1;" parent="1" vertex="1">
          <mxGeometry x="770" y="1170" width="130" height="30" as="geometry" />
        </mxCell>
        <mxCell id="edge-account-derived" value="" style="endArrow=none;html=1;rounded=0;" parent="1" source="custom-account-derived" target="9HaLk-vUKkPJD6GOTPyn-73" edge="1">
          <mxGeometry relative="1" as="geometry" />
        </mxCell>
        <mxCell id="qlf4NfEvW8aG7AL079hW-1" style="edgeStyle=orthogonalEdgeStyle;rounded=0;orthogonalLoop=1;jettySize=auto;html=1;exitX=0.5;exitY=1;exitDx=0;exitDy=0;" edge="1" parent="1" source="custom-branch-derived" target="custom-branch-derived">
          <mxGeometry relative="1" as="geometry" />
        </mxCell>
        <mxCell id="qlf4NfEvW8aG7AL079hW-2" value="&lt;span style=&quot;border-bottom: 1px dotted&quot;&gt;BankCode&lt;/span&gt;" style="ellipse;whiteSpace=wrap;html=1;align=center;" vertex="1" parent="1">
          <mxGeometry x="280" y="1040" width="100" height="40" as="geometry" />
        </mxCell>
        <mxCell id="qlf4NfEvW8aG7AL079hW-3" value="&lt;span style=&quot;border-bottom: 1px dotted&quot;&gt;Branch_id&lt;/span&gt;" style="ellipse;whiteSpace=wrap;html=1;align=center;" vertex="1" parent="1">
          <mxGeometry x="710" y="1400" width="100" height="40" as="geometry" />
        </mxCell>
        <mxCell id="qlf4NfEvW8aG7AL079hW-6" value="&lt;span style=&quot;border-bottom: 1px dotted&quot;&gt;Custid&lt;/span&gt;" style="ellipse;whiteSpace=wrap;html=1;align=center;" vertex="1" parent="1">
          <mxGeometry x="480" y="1375" width="100" height="40" as="geometry" />
        </mxCell>
        <mxCell id="qlf4NfEvW8aG7AL079hW-7" value="&lt;span style=&quot;border-bottom: 1px dotted&quot;&gt;Custid&lt;/span&gt;" style="ellipse;whiteSpace=wrap;html=1;align=center;" vertex="1" parent="1">
          <mxGeometry x="840" y="1380" width="100" height="40" as="geometry" />
        </mxCell>
      </root>
    </mxGraphModel>
  </diagram>
</mxfile>
